<svg width="24" height="24" viewBox="0 0 24 24" fill="none" xmlns="http://www.w3.org/2000/svg">
<g id="Interface / Settings">
<path id="Vector" d="M20.35 8.92309L19.9838 8.71936C19.9269 8.68773 19.8984 8.67185 19.871 8.6554C19.5979 8.49181 19.3679 8.26539 19.1999 7.99498C19.183 7.96777 19.1664 7.93965 19.1338 7.88326L19.1337 7.88304C19.1012 7.82672 19.0848 7.7984 19.0697 7.77014C18.919 7.48882 18.8379 7.17557 18.8331 6.85647C18.8326 6.82768 18.8331 6.79822 18.834 6.74538L18.8343 6.72633L18.8414 6.30933C18.8529 5.6233 18.8586 5.28033 18.7626 4.97278C18.6776 4.7007 18.5357 4.44986 18.3459 4.23718C18.1317 3.9972 17.8348 3.8261 17.2424 3.4847L17.2393 3.48293L16.7455 3.19837C16.1526 2.85674 15.8561 2.68599 15.5414 2.62085C15.2629 2.56322 14.9754 2.56553 14.698 2.62781C14.3851 2.69803 14.0926 2.87319 13.5086 3.22291L13.5041 3.22559L13.1503 3.43745C13.0943 3.47095 13.066 3.48766 13.038 3.50325C12.7597 3.65797 12.4485 3.74406 12.1303 3.75427C12.0982 3.7553 12.0656 3.7553 12.0004 3.7553H11.9995C11.9347 3.7553 11.9025 3.7553 11.8705 3.75427C11.5516 3.74402 11.2394 3.65754 10.9607 3.50218C10.9336 3.48709 10.9067 3.47094 10.8546 3.43967L10.8486 3.43606L10.4925 3.22229L10.4899 3.22068C9.9023 2.86794 9.60823 2.6914 9.29382 2.62085C9.01525 2.55835 8.72629 2.55625 8.44683 2.61463C8.13092 2.68061 7.83353 2.85319 7.239 3.19824L6.75134 3.48128C6.1599 3.82454 5.8646 3.9961 5.65124 4.23625C5.46248 4.44871 5.32109 4.69897 5.23664 4.97034C5.14119 5.27707 5.14657 5.619 5.15807 6.30274L5.16522 6.7274C5.1663 6.7917 5.16702 6.82388 5.16655 6.85551C5.16182 7.17525 5.0804 7.48918 4.92929 7.771C4.91434 7.79887 4.89824 7.82674 4.86608 7.88241C4.8339 7.93812 4.81783 7.96591 4.80114 7.9928C4.63242 8.26465 4.40094 8.49214 4.12613 8.65601C4.09895 8.67222 4.07104 8.6878 4.01476 8.719L3.65319 8.91936L3.65307 8.91943C3.05158 9.25276 2.7509 9.41939 2.5321 9.65678C2.33853 9.86681 2.19195 10.1159 2.10269 10.3872C2.00192 10.6935 2.0027 11.0369 2.00426 11.7229L2.00427 11.7256L2.00554 12.2877L2.00556 12.2938C2.0071 12.9729 2.00787 13.3134 2.1087 13.6171C2.19816 13.8866 2.344 14.1339 2.53649 14.3427C2.75383 14.5784 3.05212 14.7443 3.64782 15.0757L3.64977 15.0768L4.00811 15.2761L4.01309 15.2789C4.07079 15.311 4.10054 15.3275 4.12914 15.3448C4.40145 15.5087 4.63043 15.7353 4.79772 16.0056C4.81579 16.0348 4.83314 16.0651 4.86781 16.1257L4.86784 16.1257C4.9021 16.1856 4.91943 16.2155 4.93528 16.2455C5.08195 16.5232 5.16121 16.8315 5.16657 17.1455C5.16715 17.1794 5.16661 17.214 5.16544 17.283L5.15856 17.6905L5.15854 17.692C5.14697 18.3771 5.14119 18.7198 5.23713 19.0271C5.32208 19.2992 5.46438 19.55 5.65417 19.7627C5.86869 20.0031 6.1656 20.1745 6.76013 20.5171L7.25383 20.8016C7.84668 21.1432 8.14354 21.314 8.45828 21.3791C8.73673 21.4367 9.02419 21.4344 9.30163 21.3721C9.61457 21.3018 9.90718 21.1266 10.4917 20.7766L10.4955 20.7744L10.8493 20.5625C10.9053 20.529 10.9334 20.5123 10.9615 20.4967C11.2398 20.342 11.5508 20.2559 11.869 20.2457C11.9011 20.2446 11.9337 20.2446 11.9989 20.2446C12.0643 20.2446 12.0975 20.2446 12.1296 20.2457C12.4485 20.2559 12.7602 20.3423 13.0389 20.4977C13.067 20.5133 13.0952 20.5302 13.1512 20.5638L13.5073 20.7776L13.508 20.778C14.0969 21.1316 14.3913 21.3083 14.7061 21.379C14.9847 21.4415 15.2731 21.4437 15.5526 21.3853C15.8685 21.3193 16.1661 21.1468 16.7606 20.8017L17.2483 20.5187C17.8397 20.1754 18.1351 20.0038 18.3484 19.7637C18.5372 19.5512 18.6786 19.301 18.7631 19.0296C18.8585 18.7229 18.853 18.381 18.8415 17.6972L18.8343 17.2726L18.834 17.2511C18.8331 17.2007 18.8326 17.1724 18.833 17.1445C18.8378 16.8248 18.9191 16.5108 19.0702 16.229C19.0851 16.2011 19.1012 16.1733 19.1333 16.1178L19.1334 16.1176C19.1656 16.0619 19.1819 16.034 19.1986 16.0071C19.3674 15.7352 19.5986 15.5079 19.8734 15.344C19.8997 15.3283 19.9271 15.3132 19.9797 15.284L19.9852 15.2809L20.3468 15.0806C20.9484 14.7472 21.2489 14.5806 21.4677 14.3431C21.6613 14.1331 21.8076 13.8841 21.8968 13.6128C21.9977 13.3061 21.9973 12.9622 21.9958 12.2744L21.9945 11.7123C21.993 11.0291 21.9921 10.6874 21.891 10.3828C21.8015 10.1133 21.6556 9.86601 21.4631 9.65725C21.2455 9.42128 20.947 9.25521 20.35 8.92309Z" stroke="#0B0B0B" stroke-width="1.2" stroke-linecap="round" stroke-linejoin="round"/>
</g>
</svg>
