<svg width="24" height="24" viewBox="0 0 24 24" fill="none" xmlns="http://www.w3.org/2000/svg">
<g id="CP Icons (tag)_Artboard 2 (1) 1">
<g id="Group">
<path id="Vector" d="M12.9601 5.28003L19.3426 11.6625C20.1001 12.42 20.1001 13.6425 19.3426 14.4L13.7701 19.9725C13.0126 20.73 11.7901 20.73 11.0326 19.9725L4.65008 13.59C4.29008 13.23 4.08008 12.735 4.08008 12.225V6.65253C4.08008 5.58753 4.95008 4.71753 6.01508 4.71753H11.5876C12.1051 4.71753 12.6001 4.92003 12.9601 5.28003Z" stroke="#444444" stroke-width="0.7" stroke-miterlimit="10" stroke-linecap="round" stroke-linejoin="round"/>
<path id="Vector_2" d="M8.5801 10.2525C9.15585 10.2525 9.6226 9.7858 9.6226 9.21004C9.6226 8.63428 9.15585 8.16754 8.5801 8.16754C8.00434 8.16754 7.5376 8.63428 7.5376 9.21004C7.5376 9.7858 8.00434 10.2525 8.5801 10.2525Z" stroke="#444444" stroke-width="0.7" stroke-miterlimit="10" stroke-linecap="round" stroke-linejoin="round"/>
</g>
</g>
</svg>
